<svg preserveAspectRatio="none" overflow="visible" style="display: block;" width="20" height="20" viewBox="0 0 20 20" fill="none" xmlns="http://www.w3.org/2000/svg">
<g id="adf_scanner">
<mask id="mask0_0_119" style="mask-type:alpha" maskUnits="userSpaceOnUse" x="0" y="0" width="20" height="20">
<rect id="Bounding box" width="20" height="20" fill="#D9D9D9"/>
</mask>
<g mask="url(#mask0_0_119)">
<path id="adf_scanner_2" d="M1.66667 15.4167V12.125C1.66667 11.5 1.85764 10.9965 2.23958 10.6146C2.62153 10.2326 3.125 10.0417 3.75 10.0417H5.04167V4.58333C5.04167 4.23958 5.1641 3.94528 5.40896 3.70042C5.65368 3.45569 5.94792 3.33333 6.29167 3.33333H13.7083C14.0521 3.33333 14.3464 3.45569 14.5913 3.70042C14.836 3.94528 14.9583 4.23958 14.9583 4.58333V10.0417H16.25C16.875 10.0417 17.3785 10.2326 17.7604 10.6146C18.1424 10.9965 18.3333 11.5 18.3333 12.125V15.4167C18.3333 15.7604 18.211 16.0547 17.9662 16.2994C17.7214 16.5442 17.4271 16.6667 17.0833 16.6667H2.91667C2.57292 16.6667 2.27868 16.5442 2.03396 16.2994C1.7891 16.0547 1.66667 15.7604 1.66667 15.4167ZM6.29167 10.0417H13.7083V4.58333H6.29167V10.0417ZM15.3996 13.2708C15.5776 13.2708 15.7257 13.2106 15.8438 13.09C15.9618 12.9696 16.0208 12.8203 16.0208 12.6421C16.0208 12.464 15.9606 12.316 15.84 12.1979C15.7196 12.0799 15.5703 12.0208 15.3921 12.0208C15.214 12.0208 15.066 12.0811 14.9479 12.2017C14.8299 12.3221 14.7708 12.4714 14.7708 12.6496C14.7708 12.8276 14.8311 12.9757 14.9517 13.0938C15.0721 13.2118 15.2214 13.2708 15.3996 13.2708Z" fill="#1C1B1F"/>
</g>
</g>
</svg>
