<svg preserveAspectRatio="none" overflow="visible" style="display: block;" width="11.1606" height="13.7086" viewBox="0 0 11.1606 13.7086" fill="none" xmlns="http://www.w3.org/2000/svg">
<g id="user">
<path id="Trazado 25" d="M10.4266 1.26013H7.33594C7.08261 0.507175 6.37687 0 5.58244 0C4.78801 0 4.08227 0.507175 3.82894 1.26013H0.858507C0.64587 1.22938 0.430243 1.29114 0.266134 1.42981C0.102028 1.56848 0.00515175 1.77078 0 1.98557V12.983C0.0023632 13.3861 0.331001 13.7109 0.734022 13.7085H10.4266C10.8296 13.7109 11.1582 13.3861 11.1606 12.983V1.98557C11.1582 1.58255 10.8296 1.25776 10.4266 1.26013ZM2.70001 2.54789C2.70001 2.31082 2.89219 2.11864 3.12926 2.11864H4.60589V1.84821C4.60589 1.29939 5.05079 0.854487 5.59961 0.854487C6.14843 0.854487 6.59333 1.29939 6.59333 1.84821V2.1401H8.06997C8.30703 2.1401 8.49921 2.33229 8.49921 2.56935V3.34201H2.68283L2.70001 2.54789ZM8.93276 6.5099L5.01798 10.4247L2.76869 8.17541C2.53162 7.93834 2.53162 7.55397 2.76869 7.3169C3.00576 7.07983 3.39012 7.07983 3.62719 7.3169L5.02656 8.71626L8.09143 5.6514C8.3285 5.41432 8.71286 5.41432 8.94993 5.6514C9.187 5.88847 9.187 6.27283 8.94993 6.5099H8.93276Z" fill="black"/>
</g>
</svg>
